<?xml version="1.0" encoding="iso-8859-1"?>
<!-- Generator: Adobe Illustrator 19.0.0, SVG Export Plug-In . SVG Version: 6.00 Build 0)  -->
<svg version="1.1" id="Capa_1" xmlns="http://www.w3.org/2000/svg" xmlns:xlink="http://www.w3.org/1999/xlink" x="0px" y="0px"
	 viewBox="0 0 512.002 512.002" style="enable-background:new 0 0 512.002 512.002;" xml:space="preserve">
<linearGradient id="SVGID_1_" gradientUnits="userSpaceOnUse" x1="420.5185" y1="416.804" x2="496.8785" y2="340.444" gradientTransform="matrix(1.0039 0 0 -1.0039 0.1922 516.5628)">
	<stop  offset="0" style="stop-color:#FFE7A5"/>
	<stop  offset="0.175" style="stop-color:#FFDF96"/>
	<stop  offset="0.721" style="stop-color:#FFC86C"/>
	<stop  offset="1" style="stop-color:#FFBF5C"/>
</linearGradient>
<path style="fill:url(#SVGID_1_);" d="M500.838,107.036c-7.044-7.044-15.783-12.192-25.408-14.757
	c-12.213-3.254-24.524-10.243-34.994-20.714c-10.47-10.47-17.459-22.782-20.714-34.994c-2.565-9.626-7.712-18.365-14.757-25.408
	l-6.919-6.919c-5.658-5.658-14.831-5.658-20.488,0L328.48,53.323c-5.658,5.658-5.658,14.831,0,20.488l6.919,6.919
	c7.044,7.044,15.784,12.192,25.409,14.757c12.213,3.254,24.524,10.243,34.994,20.714c10.47,10.47,17.459,22.782,20.714,34.994
	c2.565,9.626,7.712,18.365,14.757,25.409l6.919,6.919c5.658,5.658,14.831,5.658,20.488,0l49.079-49.079
	c5.658-5.658,5.658-14.831,0-20.488L500.838,107.036z"/>
<linearGradient id="SVGID_2_" gradientUnits="userSpaceOnUse" x1="413.854" y1="418.5885" x2="390.374" y2="395.1085" gradientTransform="matrix(1.0039 0 0 -1.0039 0.1922 516.5628)">
	<stop  offset="0" style="stop-color:#FFBF5C;stop-opacity:0"/>
	<stop  offset="1" style="stop-color:#FFBF5C"/>
</linearGradient>
<path style="fill:url(#SVGID_2_);" d="M356.62,25.182l-28.141,28.141c-5.658,5.658-5.658,14.831,0,20.488l6.919,6.919
	c7.044,7.044,15.784,12.192,25.409,14.757c12.213,3.254,24.524,10.243,34.994,20.714c10.47,10.47,17.459,22.782,20.714,34.994
	c2.565,9.626,7.712,18.365,14.757,25.409l6.919,6.919c5.658,5.658,14.83,5.658,20.488,0l28.141-28.141L356.62,25.182z"/>
<linearGradient id="SVGID_3_" gradientUnits="userSpaceOnUse" x1="391.2228" y1="395.9597" x2="445.9328" y2="450.6667" gradientTransform="matrix(1.0039 0 0 -1.0039 0.1922 516.5628)">
	<stop  offset="0" style="stop-color:#FFE7A5"/>
	<stop  offset="0.175" style="stop-color:#FFDF96"/>
	<stop  offset="0.721" style="stop-color:#FFC86C"/>
	<stop  offset="1" style="stop-color:#FFBF5C"/>
</linearGradient>
<path style="fill:url(#SVGID_3_);" d="M408.397,49.108l54.496,54.496c6.416,6.416,6.416,16.818,0,23.234l-11.821,11.821
	c-6.416,6.416-16.818,6.416-23.234,0l-54.496-54.496c-6.416-6.416-6.416-16.818,0-23.234l11.821-11.821
	C391.58,42.692,401.981,42.692,408.397,49.108z"/>
<linearGradient id="SVGID_4_" gradientUnits="userSpaceOnUse" x1="448.0384" y1="387.7138" x2="421.7084" y2="411.6238" gradientTransform="matrix(1.0039 0 0 -1.0039 0.1922 516.5628)">
	<stop  offset="0" style="stop-color:#FF931E;stop-opacity:0"/>
	<stop  offset="1" style="stop-color:#FF5D00"/>
</linearGradient>
<path style="fill:url(#SVGID_4_);" d="M500.838,107.036c-7.044-7.044-15.783-12.192-25.408-14.757
	c-10.34-2.755-20.747-8.198-30.051-16.154l-45.018,45.018c7.956,9.304,13.399,19.711,16.154,30.051
	c2.565,9.626,7.712,18.365,14.757,25.409l3.154,3.154l69.567-69.567L500.838,107.036z"/>
<linearGradient id="SVGID_5_" gradientUnits="userSpaceOnUse" x1="254.1732" y1="244.5492" x2="279.1632" y2="221.8892" gradientTransform="matrix(1.0039 0 0 -1.0039 0.1922 516.5628)">
	<stop  offset="0" style="stop-color:#654E48"/>
	<stop  offset="1" style="stop-color:#503837"/>
</linearGradient>
<path style="fill:url(#SVGID_5_);" d="M54.172,506.718L54.172,506.718c-8.481-7.691-8.963-20.857-1.067-29.148L462.217,52.514
	c3.407-3.577,9.045-3.784,12.706-0.466l0,0c3.659,3.319,4.004,8.951,0.775,12.691L83.284,504.939
	C75.803,513.605,62.652,514.409,54.172,506.718z"/>
<linearGradient id="SVGID_6_" gradientUnits="userSpaceOnUse" x1="85.4444" y1="63.0715" x2="108.5544" y2="42.1115" gradientTransform="matrix(1.0039 0 0 -1.0039 0.1922 516.5628)">
	<stop  offset="0" style="stop-color:#FFE7A5"/>
	<stop  offset="0.216" style="stop-color:#FFE29C"/>
	<stop  offset="0.577" style="stop-color:#FFD482"/>
	<stop  offset="1" style="stop-color:#FFBF5C"/>
</linearGradient>
<polygon style="fill:url(#SVGID_6_);" points="101.026,484.387 71.83,457.91 89.704,439.141 117.964,464.768 "/>
<linearGradient id="SVGID_7_" gradientUnits="userSpaceOnUse" x1="112.5907" y1="92.9975" x2="135.7007" y2="72.0474" gradientTransform="matrix(1.0039 0 0 -1.0039 0.1922 516.5628)">
	<stop  offset="0" style="stop-color:#FFE7A5"/>
	<stop  offset="0.216" style="stop-color:#FFE29C"/>
	<stop  offset="0.577" style="stop-color:#FFD482"/>
	<stop  offset="1" style="stop-color:#FFBF5C"/>
</linearGradient>
<polygon style="fill:url(#SVGID_7_);" points="127.542,453.671 99.815,428.526 117.689,409.757 144.479,434.052 "/>
<linearGradient id="SVGID_8_" gradientUnits="userSpaceOnUse" x1="246.8992" y1="251.0946" x2="224.2392" y2="276.0846" gradientTransform="matrix(1.0039 0 0 -1.0039 0.1922 516.5628)">
	<stop  offset="0" style="stop-color:#503837"/>
	<stop  offset="1" style="stop-color:#654E48"/>
</linearGradient>
<path style="fill:url(#SVGID_8_);" d="M5.283,457.829L5.283,457.829c7.691,8.481,20.857,8.963,29.148,1.067L459.487,49.783
	c3.578-3.407,3.784-9.045,0.466-12.706l0,0c-3.319-3.659-8.951-4.004-12.691-0.775L7.062,428.717
	C-1.604,436.198-2.408,449.349,5.283,457.829z"/>
<linearGradient id="SVGID_9_" gradientUnits="userSpaceOnUse" x1="63.9433" y1="83.9974" x2="42.9833" y2="107.1074" gradientTransform="matrix(1.0039 0 0 -1.0039 0.1922 516.5628)">
	<stop  offset="0" style="stop-color:#FFBF5C"/>
	<stop  offset="0.423" style="stop-color:#FFD482"/>
	<stop  offset="0.784" style="stop-color:#FFE29C"/>
	<stop  offset="1" style="stop-color:#FFE7A5"/>
</linearGradient>
<polygon style="fill:url(#SVGID_9_);" points="27.614,410.975 54.091,440.171 72.861,422.297 47.233,394.037 "/>
<linearGradient id="SVGID_10_" gradientUnits="userSpaceOnUse" x1="91.519" y1="113.7334" x2="70.569" y2="136.8434" gradientTransform="matrix(1.0039 0 0 -1.0039 0.1922 516.5628)">
	<stop  offset="0" style="stop-color:#FFBF5C"/>
	<stop  offset="0.423" style="stop-color:#FFD482"/>
	<stop  offset="0.784" style="stop-color:#FFE29C"/>
	<stop  offset="1" style="stop-color:#FFE7A5"/>
</linearGradient>
<polygon style="fill:url(#SVGID_10_);" points="58.33,384.459 83.475,412.186 102.244,394.312 77.949,367.522 "/>
<g>
</g>
<g>
</g>
<g>
</g>
<g>
</g>
<g>
</g>
<g>
</g>
<g>
</g>
<g>
</g>
<g>
</g>
<g>
</g>
<g>
</g>
<g>
</g>
<g>
</g>
<g>
</g>
<g>
</g>
</svg>
