<?xml version="1.0" ?><!DOCTYPE svg  PUBLIC '-//W3C//DTD SVG 1.1//EN'  'http://www.w3.org/Graphics/SVG/1.1/DTD/svg11.dtd'><svg height="120px" id="Layer_1" style="enable-background:new 4 4 120 120;" version="1.1" viewBox="4 4 120 120" width="120px" xml:space="preserve" xmlns="http://www.w3.org/2000/svg" xmlns:xlink="http://www.w3.org/1999/xlink"><g id="help"><g><path d="M98.969,35.751c-1.588-2.7-3.402-5.17-5.143-7.714c-5.967-5.502-11.953-10.98-21.221-13.181h-7.715    c-5.509,1.565-10.072,4.076-15.431,5.786c-1.047,1.317-2.942,1.777-3.86,3.215c-1.31,1.156-2.639,2.289-3.858,3.537    c-1.399,0.101-2.034,0.966-3.213,1.285c-2.648,2.819-5.291,5.641-6.429,9.965c0.229,0.985-0.332,1.174-0.326,1.933    c0.462,1.361,0.13,3.515,0.646,4.821c0.147,1.475-1.387,2.479-0.32,3.858c1.297,1.595,5.022,0.763,7.712,0.963    c2.78,0.547,6.021,0.624,9.004,0.965c0.857-0.427,0.422-2.15,0.963-2.894c0.087-1.308,0.605-2.181,0.967-3.214    c0.744-1.828,2.546-2.598,3.536-4.179c1.611-0.96,2.616-2.528,4.5-3.216c3.356-1.558,7.932-1.849,12.214-0.964    c1.127,1.02,2.699,1.589,3.219,3.213c-0.104,3.909,0.57,5.144-0.324,8.36c-0.248,0.069-0.371,0.269-0.32,0.643    c-2.055,2.339-5.02,3.769-7.394,5.787c-2.782,1.719-5.26,3.742-8.039,5.466c-2.924,3.073-5.997,6.003-7.071,10.929    c-0.503,2.5-0.826,5.179-0.965,8.037c0.247,2.865-0.7,6.916,0.965,8.358c0.507,0.825,2.965,0.901,3.858,0.323    c0.716,0.998,2.376,1.053,4.177,0.963c1.196,0.521,3.164,0.268,4.824,0.322c1.711-0.004,3.633,0.201,4.5-0.643    c0.952-0.982,0.582-3.279,0.645-5.146c1.52-2.017,3.016-4.058,4.502-6.108c2.469-1.923,4.693-4.093,7.395-5.785    c2.288-2.106,4.533-4.252,7.071-6.107c2.428-1.97,4.325-4.466,6.751-6.43c0.717-1.427,2.02-2.272,2.572-3.859    c1.299-0.954,1.597-2.906,2.572-4.179C100.703,45.788,100.107,39.924,98.969,35.751z M56.209,78.832    c-0.166-0.164,0.233-0.409,0.323-0.32C56.697,78.678,56.298,78.92,56.209,78.832z M93.826,49.256    c-3.293,6.031-8.436,10.214-13.502,14.467c-4.738,4.48-10.506,7.932-13.828,13.824h-1.605c-1.017,0.695-1.866,1.564-2.25,2.895    c-0.994,0.723-0.301,3.129-1.93,3.216c-1.346,0.116-0.227-1.05-0.323-1.608c-0.004-0.757,0.554-0.945,0.323-1.931    c0.646-0.959,0.949-2.267,0.964-3.854c-0.462-0.941-1.459-1.539-2.572-0.966c0.829-2.067,2.37-3.42,3.538-5.144    c1.217-1.034,3.424-1.077,3.537-3.215c0.279-1.031-0.833-0.668-0.964-1.285c-1.117-0.26-1.235,0.477-2.252,0.32    c-0.894,0.371-1.55,0.793-2.251,1.284c-0.629,0.441-1.045,1.2-1.928,1.286c2.48-3.947,6.907-5.952,10.608-8.679    c2.568-2.145,4.914-4.515,7.396-6.751c0.625-1.625,1.788-2.71,2.57-4.18c-0.015-1.516,0.563-2.436,0.644-3.857    c0.729-0.665,1.142-1.645,1.606-2.573c-0.555-3.836-2.084-6.701-4.5-8.681c-0.233-0.982,0.554-0.943,0.32-1.928    c-1.133-1.007-2.521-1.763-3.857-2.573c-0.562,0.293-0.588,1.128-0.965,1.609c-0.901-0.172-1.67-0.475-2.569-0.643h-3.858    c-1.085,0.524-3.242-0.026-4.175,0.643c-0.971-0.448,0.662-1.665-0.328-2.252c-0.991,0.398-1.723,1.062-2.247,1.929    c-0.742,0.653-1.635,1.153-2.251,1.929c-0.83-0.027-0.339-1.375-1.609-0.964c-1.356,0.249-1.714,1.5-1.928,2.893    c-1.363,0.78-1.774,2.513-3.213,3.214c-0.796,1.352-2.338,1.952-2.897,3.536c-0.717-0.137-0.127-1.583-0.32-2.248    c-0.821-0.247-1.477-0.474-1.928,0.321c-0.832-0.546,0.622-1.497,0.321-2.573c0-0.855-0.896-0.82-1.285-1.285    c-0.28-0.473-0.48-1.018-1.286-0.965c1.449-1.872,3.267-3.377,5.144-4.822c1.544-1.67,3.864-2.564,5.465-4.18    c5.132-1.297,8.484-4.375,15.112-4.178c1.173,0.218,2.337,0.447,3.854,0.319c2.857,1.433,6.162,2.413,8.359,4.503    c2.979,1.202,4.389,3.968,7.071,5.465c0.419,1.404,1.835,1.81,2.253,3.215c0.833,0.883,1.367,2.059,2.249,2.892    c0.177,0.572,0.165,1.335,0.644,1.609c0.015,2.021,0.312,3.764,0.646,5.464v4.502H93.826z M78.393,25.144    C78.326,24.181,77.057,25.451,78.393,25.144L78.393,25.144z M78.393,25.144c-0.059,0.274,0.125,0.303,0.32,0.321    C78.771,25.191,78.588,25.163,78.393,25.144z M78.713,25.465C78.914,25.933,79.104,25.434,78.713,25.465L78.713,25.465z     M62.961,96.838c-0.975,0.201-2.768-0.411-3.214,0.32c-2.095-0.168-3.659,0.197-5.145,0.643c-1.286,0.965-2.362,2.141-3.216,3.537    c-0.687,2.957-0.015,6.703,0.324,9.645c0.431,0.213,0.597,0.688,0.641,1.287c1.039,0.769,1.954,1.535,2.894,1.929    c2.391,0.993,4.981,0.536,8.036,0.643c0.548-0.739,2.147-0.425,2.573-1.284c1.217-0.072,1.562-1.012,2.571-1.287    c1.112-1.457,2.587-2.558,3.218-4.5c0.603-1.74,0.156-3.604,0-5.467C69.927,99.305,67.066,97.445,62.961,96.838z M62.961,109.376    c-1.536-0.119-3.231,0.871-4.499,0c0.303-1.407,0.336-3.094,0.64-4.502c0.724-0.779,1.289-1.712,2.252-2.251    c2.439-0.188,4.296,0.208,5.466,1.287C67.316,107.52,64.533,107.836,62.961,109.376z"/></g></g></svg>